<svg width="112" height="34" viewBox="0 0 112 34" fill="none" xmlns="http://www.w3.org/2000/svg">
<g clip-path="url(#clip0_2204_75)">
<path fill-rule="evenodd" clip-rule="evenodd" d="M69.0064 25.9352C62.5501 30.6259 53.1924 33.1282 45.1357 33.1282C34.3675 33.182 23.9672 29.2697 15.9735 22.1581C15.3691 21.6191 15.9102 20.8852 16.6365 21.307C25.5211 26.313 35.5793 28.9423 45.8131 28.934C53.4604 28.8995 61.0253 27.3751 68.0728 24.4486C69.1656 23.9909 70.08 25.1541 69.0112 25.9362" fill="#8F97A5"/>
<path fill-rule="evenodd" clip-rule="evenodd" d="M71.6862 22.908C70.8639 21.8677 66.2307 22.4172 64.1515 22.6602C63.5183 22.7368 63.4213 22.1931 63.9922 21.8025C67.6824 19.2425 73.7366 19.982 74.4428 20.8398C75.1489 21.6975 74.2585 27.6847 70.792 30.5397C70.2595 30.9785 69.7519 30.745 69.9889 30.1615C70.768 28.2455 72.5133 23.9502 71.6862 22.9061" fill="#8F97A5"/>
<path fill-rule="evenodd" clip-rule="evenodd" d="M64.3011 3.73217V1.24405C64.299 1.1609 64.314 1.07819 64.3453 1.00095C64.3767 0.923712 64.4236 0.853554 64.4833 0.794738C64.5429 0.735921 64.6141 0.689674 64.6925 0.658804C64.7709 0.627935 64.8548 0.613087 64.9392 0.615164H76.2408C76.3261 0.612077 76.4111 0.626125 76.4907 0.656454C76.5703 0.686783 76.6429 0.732759 76.7039 0.791585C76.7649 0.850412 76.8132 0.920859 76.8458 0.998643C76.8783 1.07643 76.8944 1.15992 76.8932 1.24405V3.3747C76.7502 3.95909 76.4571 4.49742 76.0421 4.93793L70.1894 13.1797C72.4234 13.0563 74.6501 13.5273 76.636 14.5433C76.8133 14.6386 76.962 14.7782 77.0672 14.948C77.1725 15.1178 77.2306 15.3119 77.2357 15.5108V18.1663C77.2357 18.5285 76.8299 18.9531 76.4038 18.7337C74.5564 17.7977 72.5085 17.3111 70.4312 17.3143C68.354 17.3176 66.3077 17.8108 64.4632 18.7526C64.0718 18.9626 63.6602 18.5427 63.6602 18.1852V15.6583C63.6224 15.0597 63.7671 14.4636 64.0756 13.9466L70.8591 4.35917H64.9545C64.8695 4.36278 64.7846 4.34925 64.705 4.3194C64.6255 4.28956 64.5529 4.24403 64.4919 4.1856C64.4308 4.12717 64.3824 4.05708 64.3498 3.9796C64.3172 3.90212 64.3009 3.81889 64.3021 3.73501" fill="#8F97A5"/>
<path fill-rule="evenodd" clip-rule="evenodd" d="M23.0733 19.2568H19.6336C19.4781 19.2491 19.3305 19.1867 19.2178 19.0808C19.1051 18.9749 19.0347 18.8326 19.0195 18.6799V1.28671C19.0211 1.20271 19.0396 1.11987 19.0739 1.04295C19.1081 0.966023 19.1575 0.896547 19.2191 0.838523C19.2808 0.7805 19.3534 0.735077 19.433 0.704874C19.5125 0.674671 19.5973 0.660285 19.6825 0.662547H22.8891C23.0471 0.667711 23.1978 0.729711 23.3127 0.836852C23.4276 0.943993 23.4988 1.08887 23.5127 1.24415V3.51382H23.5761C23.8583 2.5563 24.4571 1.71919 25.2772 1.13544C26.0974 0.551687 27.0919 0.254767 28.1028 0.291835C30.2549 0.291835 31.5991 1.31697 32.5663 3.51382C32.8855 2.68663 33.4215 1.95765 34.1197 1.40117C34.8179 0.844698 35.6533 0.480621 36.5408 0.34605C37.4282 0.211478 38.336 0.311223 39.1716 0.635119C40.0072 0.959016 40.7408 1.49548 41.2975 2.18984C42.3855 3.65283 42.161 5.78348 42.161 7.64272L42.1562 18.6203C42.1547 18.7046 42.1364 18.7877 42.1022 18.8649C42.068 18.9422 42.0188 19.012 41.9572 19.0704C41.8956 19.1289 41.8229 19.1747 41.7433 19.2054C41.6636 19.2361 41.5787 19.251 41.4932 19.2492H38.0593C37.8946 19.2407 37.7394 19.1711 37.6246 19.0545C37.5098 18.9379 37.444 18.7828 37.4404 18.6203V9.40927C37.4912 8.32152 37.4591 7.23154 37.3445 6.14852C37.2772 5.68604 37.0266 5.26874 36.6476 4.9881C36.2687 4.70747 35.7922 4.58642 35.3228 4.65149C34.8764 4.66502 34.4439 4.80724 34.0786 5.06053C33.7133 5.31382 33.4314 5.66709 33.2677 6.07665C32.9816 7.16332 32.8738 8.28808 32.9482 9.40833V18.627C32.9467 18.7112 32.9283 18.7943 32.8942 18.8716C32.86 18.9488 32.8107 19.0186 32.7491 19.0771C32.6875 19.1355 32.6148 19.1813 32.5352 19.212C32.4556 19.2427 32.3706 19.2576 32.2852 19.2558H28.8512C28.6864 19.2479 28.5307 19.1786 28.4158 19.0618C28.3009 18.9451 28.2353 18.7896 28.2324 18.627L28.2276 9.40833C28.2276 7.46871 28.5519 4.61271 26.1091 4.61271C23.6375 4.61271 23.7344 7.39684 23.7344 9.40833V18.627C23.7329 18.7112 23.7145 18.7943 23.6804 18.8716C23.6462 18.9488 23.5969 19.0186 23.5353 19.0771C23.4737 19.1355 23.401 19.1813 23.3214 19.212C23.2418 19.2427 23.1568 19.2576 23.0714 19.2558" fill="#8F97A5"/>
<path fill-rule="evenodd" clip-rule="evenodd" d="M86.6249 0.295654C91.7273 0.295654 94.4925 4.61464 94.4925 10.1053C94.4925 15.4107 91.4414 19.62 86.6249 19.62C81.6145 19.62 78.8867 15.301 78.8867 9.91998C78.8867 4.50494 81.6481 0.295654 86.6249 0.295654ZM86.6537 3.84674C84.1197 3.84674 83.9604 7.25124 83.9604 9.37148C83.9604 11.4917 83.9268 16.0348 86.6249 16.0348C89.2893 16.0348 89.415 12.3741 89.415 10.1432C89.4716 8.58882 89.299 7.03461 88.9027 5.52913C88.7967 5.02852 88.5107 4.58254 88.0974 4.27337C87.6841 3.9642 87.1714 3.81268 86.6537 3.84674Z" fill="#8F97A5"/>
<path fill-rule="evenodd" clip-rule="evenodd" d="M101.104 19.2568H97.6784C97.5138 19.2483 97.3585 19.1787 97.2437 19.0621C97.129 18.9455 97.0631 18.7904 97.0595 18.628L97.0547 1.22718C97.0733 1.06807 97.1517 0.921604 97.2744 0.816594C97.3971 0.711583 97.5553 0.655638 97.7177 0.659766H100.905C101.047 0.6647 101.183 0.714695 101.294 0.802295C101.405 0.889894 101.484 1.0104 101.519 1.14585V3.80893H101.582C102.542 1.43051 103.894 0.295674 106.269 0.295674C107.061 0.258948 107.85 0.429092 108.555 0.78892C109.259 1.14875 109.855 1.68551 110.282 2.34499C111.182 3.73706 111.182 6.07765 111.182 7.76004V18.7093C111.157 18.8641 111.076 19.0048 110.954 19.1056C110.833 19.2064 110.678 19.2604 110.519 19.2578H107.071C106.92 19.2497 106.778 19.1907 106.667 19.0907C106.556 18.9908 106.483 18.856 106.461 18.7093V9.25707C106.461 7.35528 106.684 4.57116 104.309 4.57116C103.877 4.58997 103.46 4.73132 103.107 4.97826C102.754 5.22519 102.482 5.5672 102.321 5.96322C101.897 7.00861 101.711 8.13298 101.775 9.25707V18.6194C101.769 18.7901 101.696 18.9516 101.57 19.0692C101.444 19.1869 101.277 19.2512 101.104 19.2483" fill="#8F97A5"/>
<path fill-rule="evenodd" clip-rule="evenodd" d="M55.2937 10.9489C55.4247 12.1824 55.202 13.4275 54.6509 14.5425C54.4306 14.9858 54.0935 15.3625 53.6749 15.6334C53.2563 15.9042 52.7716 16.0592 52.2714 16.0821C50.9511 16.0821 50.1778 15.091 50.1778 13.6233C50.1778 10.7352 52.8039 10.2103 55.2947 10.2103V10.9442L55.2937 10.9489ZM58.7622 19.2048C58.6512 19.2982 58.514 19.356 58.3688 19.3705C58.2236 19.3851 58.0773 19.3556 57.9495 19.2861C57.1584 18.6572 56.49 17.8916 55.9768 17.0269C55.297 17.8499 54.4289 18.5024 53.4437 18.9308C52.4585 19.3592 51.3843 19.5513 50.3093 19.4913C47.4126 19.4913 45.1636 17.7323 45.1636 14.2096C45.1223 13.0268 45.4521 11.8602 46.1082 10.8689C46.7643 9.87762 47.7147 9.10999 48.8297 8.6707C50.6969 7.86024 53.3028 7.71744 55.2956 7.49331V7.05924C55.4036 6.21674 55.2575 5.36156 54.8754 4.60043C54.6502 4.31056 54.3569 4.07892 54.0208 3.9254C53.6847 3.77187 53.3159 3.70106 52.9459 3.71905C52.3135 3.67057 51.6848 3.85025 51.1768 4.22464C50.6688 4.59903 50.3162 5.14261 50.1845 5.75418C50.1667 5.90772 50.0985 6.05133 49.9902 6.16314C49.882 6.27495 49.7396 6.34886 49.5849 6.37361L46.2526 6.02087C46.1705 6.00994 46.0915 5.98251 46.0205 5.94027C45.9496 5.89803 45.8882 5.84188 45.8401 5.77529C45.7921 5.70871 45.7585 5.63311 45.7413 5.55319C45.7241 5.47326 45.7237 5.39071 45.7402 5.31065C46.4982 1.32928 50.1548 0.128245 53.4237 0.128245C55.3006 0.0570611 57.1404 0.65616 58.6048 1.81536C60.2782 3.35495 60.1189 5.409 60.1189 7.64462V12.9263C60.1327 14.0973 60.5958 15.2198 61.4151 16.0679C61.5335 16.1898 61.5984 16.3528 61.5957 16.5215C61.593 16.6902 61.523 16.851 61.4007 16.9692C60.6994 17.546 59.4521 18.6185 58.7651 19.219L58.7603 19.2095" fill="#8F97A5"/>
<path fill-rule="evenodd" clip-rule="evenodd" d="M10.2134 10.9489C10.3445 12.1824 10.1217 13.4275 9.5706 14.5425C9.35084 14.9861 9.0139 15.3632 8.59519 15.6341C8.17648 15.905 7.69146 16.0598 7.19111 16.0821C5.87088 16.0821 5.10234 15.091 5.10234 13.6233C5.10234 10.7352 7.72841 10.2103 10.2144 10.2103V10.9441L10.2134 10.9489ZM13.6819 19.2048C13.5709 19.2982 13.4337 19.356 13.2885 19.3705C13.1433 19.3851 12.997 19.3556 12.8693 19.2861C12.0794 18.6558 11.4112 17.8905 10.8966 17.0269C9.00451 18.9286 7.67372 19.4951 5.22707 19.4951C2.33523 19.4951 0.0814308 17.7361 0.0814308 14.2144C0.0410563 13.0317 0.371327 11.8655 1.02731 10.8744C1.68328 9.88334 2.63312 9.11552 3.74757 8.67543C5.61374 7.86497 8.22062 7.72217 10.2134 7.49804V7.05924C10.3206 6.21725 10.1763 5.36273 9.79799 4.60043C9.57154 4.31185 9.27785 4.08133 8.9418 3.92839C8.60576 3.77546 8.23726 3.70462 7.86754 3.72188C7.23447 3.67348 6.60511 3.85321 6.09635 4.22769C5.5876 4.60217 5.23405 5.14593 5.10138 5.75796C5.0838 5.91083 5.01627 6.05393 4.90897 6.16566C4.80166 6.27739 4.66041 6.3517 4.50651 6.37739L1.16947 6.02465C1.08756 6.01321 1.00888 5.98544 0.93821 5.94305C0.867543 5.90066 0.806376 5.84452 0.758437 5.77807C0.710497 5.71162 0.67679 5.63624 0.65937 5.55653C0.64195 5.47682 0.641182 5.39444 0.657113 5.31443C1.42469 1.32928 5.0774 0.128245 8.34631 0.128245C10.2232 0.0570611 12.063 0.65616 13.5275 1.81536C15.2008 3.35495 15.0415 5.409 15.0415 7.64462V12.9263C15.0553 14.0973 15.5184 15.2198 16.3377 16.0679C16.3973 16.1277 16.4442 16.1984 16.476 16.2761C16.5077 16.3537 16.5236 16.4368 16.5227 16.5205C16.5218 16.6042 16.5042 16.687 16.4708 16.7639C16.4374 16.8409 16.3889 16.9107 16.3281 16.9692C15.6268 17.546 14.3795 18.6185 13.6925 19.219L13.6829 19.2095" fill="#8F97A5"/>
</g>
<defs>
<clipPath id="clip0_2204_75">
<rect width="111.1" height="33" fill="white" transform="translate(0.0820312 0.128174)"/>
</clipPath>
</defs>
</svg>
