<svg width="101" height="34" viewBox="0 0 101 34" fill="none" xmlns="http://www.w3.org/2000/svg">
<g clip-path="url(#clip0_2204_65)">
<path d="M43.5345 17.4944C43.5397 19.1316 43.0601 20.7336 42.1565 22.0974C41.253 23.4612 39.9661 24.5255 38.4587 25.1557C36.9514 25.7858 35.2915 25.9533 33.6891 25.6371C32.0867 25.3209 30.614 24.5351 29.4573 23.3792C28.3007 22.2234 27.5122 20.7495 27.1917 19.1441C26.8712 17.5387 27.0331 15.8741 27.6569 14.361C28.2806 12.8479 29.3383 11.5544 30.6958 10.6443C32.0533 9.73416 33.6497 9.24833 35.2829 9.24832C36.369 9.23118 37.4475 9.43257 38.4547 9.84058C39.4618 10.2486 40.3771 10.8549 41.1464 11.6237C41.9158 12.3925 42.5235 13.3082 42.9337 14.3166C43.3439 15.3249 43.5482 16.4055 43.5345 17.4944ZM39.9225 17.4944C39.9619 16.8593 39.8711 16.2228 39.6558 15.6242C39.4405 15.0256 39.1051 14.4775 38.6704 14.0137C38.2357 13.55 37.7109 13.1804 37.1283 12.9278C36.5457 12.6752 35.9176 12.5449 35.2829 12.5449C34.6481 12.5449 34.02 12.6752 33.4374 12.9278C32.8548 13.1804 32.33 13.55 31.8953 14.0137C31.4606 14.4775 31.1252 15.0256 30.9099 15.6242C30.6946 16.2228 30.6038 16.8593 30.6432 17.4944C30.6038 18.1296 30.6946 18.7661 30.9099 19.3647C31.1252 19.9633 31.4606 20.5114 31.8953 20.9751C32.33 21.4389 32.8548 21.8084 33.4374 22.0611C34.02 22.3137 34.6481 22.444 35.2829 22.444C35.9176 22.444 36.5457 22.3137 37.1283 22.0611C37.7109 21.8084 38.2357 21.4389 38.6704 20.9751C39.1051 20.5114 39.4405 19.9633 39.6558 19.3647C39.8711 18.7661 39.9619 18.1296 39.9225 17.4944Z" fill="#8F97A5"/>
<path d="M61.3353 17.4944C61.3404 19.1316 60.8609 20.7336 59.9573 22.0974C59.0538 23.4612 57.7669 24.5255 56.2595 25.1557C54.7522 25.7858 53.0923 25.9533 51.4899 25.6371C49.8875 25.3209 48.4148 24.5351 47.2581 23.3792C46.1015 22.2234 45.313 20.7495 44.9925 19.1441C44.672 17.5387 44.8339 15.8741 45.4576 14.361C46.0814 12.8479 47.139 11.5544 48.4966 10.6443C49.8541 9.73416 51.4505 9.24833 53.0836 9.24832C54.1698 9.23118 55.2483 9.43257 56.2555 9.84058C57.2626 10.2486 58.1779 10.8549 58.9472 11.6237C59.7165 12.3925 60.3243 13.3082 60.7345 14.3166C61.1446 15.3249 61.3489 16.4055 61.3353 17.4944ZM57.7233 17.4944C57.7627 16.8593 57.6719 16.2228 57.4566 15.6242C57.2412 15.0256 56.9059 14.4775 56.4712 14.0137C56.0365 13.55 55.5117 13.1804 54.9291 12.9278C54.3465 12.6752 53.7184 12.5449 53.0836 12.5449C52.4489 12.5449 51.8208 12.6752 51.2382 12.9278C50.6556 13.1804 50.1308 13.55 49.6961 14.0137C49.2614 14.4775 48.926 15.0256 48.7107 15.6242C48.4954 16.2228 48.4046 16.8593 48.444 17.4944C48.4046 18.1296 48.4954 18.7661 48.7107 19.3647C48.926 19.9633 49.2614 20.5114 49.6961 20.9751C50.1308 21.4389 50.6556 21.8084 51.2382 22.0611C51.8208 22.3137 52.4489 22.444 53.0836 22.444C53.7184 22.444 54.3465 22.3137 54.9291 22.0611C55.5117 21.8084 56.0365 21.4389 56.4712 20.9751C56.9059 20.5114 57.2412 19.9633 57.4566 19.3647C57.6719 18.7661 57.7627 18.1296 57.7233 17.4944Z" fill="#8F97A5"/>
<path d="M78.3968 9.74611V24.5509C78.3968 30.641 74.8141 33.1281 70.579 33.1281C69.0192 33.1379 67.492 32.6805 66.1931 31.8148C64.8941 30.949 63.8826 29.7141 63.2881 28.2684L66.4361 26.957C66.7586 27.8021 67.3249 28.5318 68.0628 29.0529C68.8007 29.5741 69.6766 29.8631 70.579 29.8831C73.2899 29.8831 74.9699 28.2063 74.9699 25.0496V23.8633H74.8362C74.2936 24.4727 73.625 24.9561 72.8769 25.2797C72.1288 25.6034 71.3193 25.7595 70.5048 25.7372C68.3838 25.6473 66.3795 24.7394 64.9104 23.2031C63.4413 21.6668 62.6211 19.6209 62.6211 17.4927C62.6211 15.3645 63.4413 13.3186 64.9104 11.7823C66.3795 10.2459 68.3838 9.33805 70.5048 9.2482C71.3161 9.22884 72.1222 9.38338 72.8692 9.70146C73.6162 10.0195 74.2868 10.4939 74.8362 11.0927H74.9626V9.75019H78.3927L78.3968 9.74611ZM75.2219 17.5238C75.2219 14.6197 73.2899 12.4973 70.831 12.4973C70.1991 12.5198 69.578 12.6684 69.0041 12.9344C68.4301 13.2005 67.9148 13.5785 67.4884 14.0466C67.0619 14.5146 66.7328 15.0632 66.5203 15.6602C66.3079 16.2573 66.2163 16.8908 66.251 17.5238C66.2197 18.153 66.314 18.7821 66.5284 19.3743C66.7427 19.9664 67.0729 20.5098 67.4995 20.9724C67.9261 21.435 68.4405 21.8075 69.0126 22.0682C69.5846 22.3289 70.2029 22.4725 70.831 22.4905C73.2866 22.493 75.2219 20.3984 75.2219 17.5246V17.5238Z" fill="#8F97A5"/>
<path d="M84.0505 1.06909V25.236H80.5273V1.06909H84.0505Z" fill="#8F97A5"/>
<path d="M97.7811 20.2079L100.585 22.0818C99.8337 23.2114 98.8146 24.1366 97.619 24.7744C96.4234 25.4122 95.0887 25.7428 93.7344 25.7364C92.6525 25.7525 91.5785 25.5497 90.5766 25.1402C89.5747 24.7308 88.6654 24.123 87.9031 23.3532C87.1409 22.5835 86.5412 21.6675 86.1401 20.6602C85.7389 19.6528 85.5445 18.5747 85.5684 17.4903C85.5684 12.5848 89.0882 9.24414 93.3266 9.24414C97.5952 9.24414 99.6829 12.6494 100.366 14.4897L100.74 15.4267L89.7439 19.9929C90.0826 20.7617 90.6437 21.4109 91.3546 21.8564C92.0654 22.3018 92.8934 22.5231 93.7311 22.4914C94.5457 22.4958 95.3474 22.2877 96.0575 21.8875C96.7676 21.4873 97.3616 20.9087 97.7811 20.2087V20.2079ZM89.151 17.2409L96.5015 14.1807C96.2199 13.6213 95.7803 13.1574 95.2375 12.8467C94.6946 12.536 94.0726 12.3923 93.449 12.4335C92.85 12.4609 92.2625 12.6076 91.7207 12.8652C91.1789 13.1227 90.6938 13.4859 90.2937 13.9336C89.8935 14.3812 89.5864 14.9044 89.3902 15.4724C89.194 16.0404 89.1127 16.6419 89.151 17.2417V17.2409Z" fill="#8F97A5"/>
<path d="M13.6943 15.3489V11.8504H25.4544C25.5768 12.5475 25.6352 13.2544 25.6289 13.9622C25.7272 16.9811 24.6422 19.9186 22.6065 22.1454C21.4604 23.3427 20.0734 24.2822 18.5376 24.9014C17.0018 25.5206 15.3523 25.8054 13.6984 25.737C10.293 25.7391 7.0238 24.3965 4.59857 21.9999C2.17333 19.6034 0.787194 16.3457 0.740234 12.9321C0.787407 9.51865 2.17364 6.26116 4.59885 3.86477C7.02406 1.46838 10.2931 0.125907 13.6984 0.127954C15.3181 0.102583 16.9265 0.401629 18.4295 1.00756C19.9324 1.61349 21.2995 2.51412 22.4508 3.65663L19.9878 6.12572C18.3004 4.49402 16.0386 3.5961 13.6943 3.6272C12.4811 3.62731 11.2801 3.86896 10.1608 4.33813C9.04156 4.8073 8.02639 5.49464 7.17423 6.36027C6.32206 7.22589 5.64987 8.25257 5.19667 9.38071C4.74346 10.5089 4.51826 11.716 4.53413 12.9321C4.51804 14.1483 4.74308 15.3556 5.19619 16.484C5.6493 17.6123 6.32146 18.6392 7.17364 19.505C8.02583 20.3708 9.04107 21.0582 10.1604 21.5275C11.2798 21.9968 12.481 22.2385 13.6943 22.2386C14.8882 22.2874 16.079 22.0847 17.1899 21.6434C18.3007 21.2022 19.307 20.5324 20.1436 19.6771C21.2394 18.4852 21.9052 16.9597 22.0348 15.3439L13.6943 15.3489Z" fill="#8F97A5"/>
</g>
<defs>
<clipPath id="clip0_2204_65">
<rect width="100" height="33" fill="white" transform="translate(0.740234 0.128174)"/>
</clipPath>
</defs>
</svg>
