<svg version="1.2" xmlns="http://www.w3.org/2000/svg" viewBox="0 0 216 72" width="216" height="72">
	<title>Hulu-Logo</title>
	<style>
		.s0 { fill: #1ce783 } 
	</style>
	<path id="Layer" class="s0" d="m132.3 0h17.2v71.2h-17.2zm-30.3 22.2h17.2v30.1c0 11.1-6.5 18.8-17.2 18.8h-16.8c-11.6 0-19.5-6.5-19.5-18.8v-30.1h17.2v28.7c0 2.5 2.1 4.6 4.6 4.6h10c2.5 0 4.6-2.1 4.6-4.6 0-0.9 0-28.7-0.1-28.7zm113.9 0v30.1c0 11.1-6.5 18.8-17.2 18.8h-16.8c-11.6 0-19.5-6.5-19.5-18.8v-30.1h17.2v28.7c0 2.5 2.1 4.6 4.6 4.6h10c2.5 0 4.6-2.1 4.6-4.6v-28.7zm-162.4 18v31h-17.2v-28.7c0-2.5-2.1-4.6-4.6-4.6h-10c-2.5 0-4.6 2.1-4.6 4.6v28.6h-17.1v-71.1h17.2v23.2c0 0 1.9-1 5.8-1h11c10.8 0 19.5 5 19.5 18z"/>
</svg>