<svg width="138" height="34" viewBox="0 0 138 34" fill="none" xmlns="http://www.w3.org/2000/svg">
<g clip-path="url(#clip0_2204_72)">
<path d="M135.167 31.0362C135.251 31.0369 135.334 31.0206 135.411 30.9882C135.488 30.9558 135.558 30.9081 135.615 30.8479C135.673 30.7878 135.718 30.7165 135.747 30.6385C135.776 30.5605 135.788 30.4774 135.783 30.3944C135.783 29.9396 135.506 29.7271 134.938 29.7271H134.02V32.1106H134.365V31.0718H134.789L134.799 31.084L135.457 32.1106H135.826L135.118 31.0484L135.167 31.0362ZM134.768 30.7971H134.368V29.9918H134.874C135.137 29.9918 135.435 30.0341 135.435 30.3744C135.435 30.7659 135.132 30.7971 134.762 30.7971H134.768ZM0.740234 4.9774H5.8332V23.3876H15.2626V28.0522H0.740234V4.9774ZM17.5143 12.4113H22.4077V28.0433H17.5143V12.4113ZM19.961 4.63818C20.5222 4.6384 21.0707 4.80372 21.5372 5.11324C22.0038 5.42276 22.3673 5.86259 22.582 6.37711C22.7966 6.89164 22.8527 7.45777 22.7432 8.00393C22.6337 8.55009 22.3634 9.05177 21.9666 9.44554C21.5698 9.83931 21.0642 10.1075 20.5138 10.2162C19.9634 10.3249 19.3929 10.2692 18.8744 10.0562C18.3559 9.8432 17.9127 9.48242 17.6007 9.01949C17.2888 8.55656 17.1222 8.01225 17.122 7.45538C17.1219 7.08538 17.1952 6.71898 17.3378 6.37711C17.4804 6.03525 17.6895 5.72462 17.9532 5.46299C18.2169 5.20136 18.5299 4.99386 18.8744 4.85233C19.2189 4.71081 19.5881 4.63804 19.961 4.63818ZM42.8749 4.97852H47.7683V18.7698L53.3141 12.4058H59.3127L52.8904 19.6406L59.177 28.051H53.0283L47.8344 20.3224H47.7694V28.0488H42.876L42.8749 4.97852ZM25.1201 12.4113H29.8185V14.5479H29.8813C30.3507 13.7499 31.0296 13.0934 31.8457 12.6486C32.6618 12.2037 33.5843 11.9872 34.5147 12.0221C39.4766 12.0221 40.39 15.2619 40.39 19.4738V28.0488H35.501V20.4403C35.501 18.6252 35.4674 16.2929 32.9523 16.2929C30.4092 16.2929 30.0169 18.2693 30.0169 20.3079V28.0399H25.1246L25.1201 12.4113Z" fill="#8F97A5"/>
<path d="M69.6166 18.406C69.6259 18.0122 69.5544 17.6206 69.4067 17.2549C69.259 16.8893 69.038 16.5572 68.7572 16.2788C68.4764 16.0003 68.1416 15.7813 67.773 15.635C67.4044 15.4887 67.0097 15.4181 66.6129 15.4275C65.758 15.3747 64.9165 15.6573 64.2697 16.2145C63.6229 16.7717 63.2226 17.5587 63.1552 18.406H69.6166ZM73.7636 25.335C72.9509 26.314 71.9288 27.1013 70.7715 27.64C69.6142 28.1786 68.3507 28.455 67.0724 28.4491C62.179 28.4491 58.2617 25.2082 58.2617 20.19C58.2617 15.1717 62.179 11.9319 67.0724 11.9319C71.6453 11.9319 74.5135 15.1684 74.5135 20.19V21.7048H63.1541C63.2955 22.5681 63.7466 23.3516 64.4242 23.911C65.1018 24.4704 65.9603 24.768 66.8415 24.7489C67.5379 24.7445 68.222 24.5674 68.8318 24.2336C69.4416 23.8999 69.9576 23.4202 70.3328 22.8381L73.7636 25.335ZM84.7128 16.1861C84.1821 16.1552 83.6509 16.2379 83.1553 16.4285C82.6596 16.6192 82.2109 16.9133 81.8398 17.291C81.4686 17.6686 81.1836 18.1211 81.004 18.6176C80.8245 19.1141 80.7545 19.6431 80.799 20.1688C80.7677 20.6983 80.8458 21.2285 81.0284 21.727C81.2111 22.2254 81.4945 22.6816 81.8612 23.0674C82.2279 23.4533 82.6702 23.7607 83.161 23.9708C83.6517 24.181 84.1806 24.2894 84.7151 24.2894C85.2496 24.2894 85.7784 24.181 86.2692 23.9708C86.7599 23.7607 87.2023 23.4533 87.569 23.0674C87.9357 22.6816 88.2191 22.2254 88.4017 21.727C88.5844 21.2285 88.6625 20.6983 88.6312 20.1688C88.676 19.6423 88.606 19.1124 88.4259 18.6151C88.2459 18.1179 87.9601 17.6649 87.5879 17.287C87.2157 16.9091 86.7659 16.6152 86.269 16.4252C85.7721 16.2353 85.2398 16.1537 84.7084 16.1861H84.7128ZM93.1324 28.0443H88.6278V25.9656H88.5606C87.9955 26.7199 87.2626 27.3346 86.4188 27.7617C85.5751 28.1888 84.6434 28.4168 83.6963 28.428C78.9945 28.428 75.8977 25.0614 75.8977 20.3001C75.8977 15.9269 78.638 11.9119 83.1437 11.9119C84.0875 11.8322 85.0368 11.979 85.9115 12.3398C86.7862 12.7006 87.5606 13.2649 88.1694 13.985H88.2333V4.97622H93.1312L93.1324 28.0443ZM126.165 28.0532H121.271V20.4447C121.271 18.6318 121.239 16.2973 118.726 16.2973C116.177 16.2973 115.787 18.2725 115.787 20.3123V28.0443H110.894V12.4124H115.591V14.5489H115.657C116.127 13.7513 116.807 13.0952 117.623 12.6504C118.439 12.2056 119.361 11.9888 120.292 12.0231C125.251 12.0231 126.166 15.2596 126.166 19.4748L126.165 28.0532ZM105.375 10.2747C104.813 10.2747 104.265 10.1095 103.798 9.79994C103.331 9.49038 102.967 9.0504 102.752 8.53562C102.537 8.02085 102.481 7.4544 102.591 6.90792C102.7 6.36144 102.97 5.85946 103.367 5.46547C103.765 5.07148 104.27 4.80317 104.821 4.69447C105.372 4.58576 105.943 4.64155 106.461 4.85478C106.98 5.06801 107.424 5.42909 107.736 5.89238C108.047 6.35566 108.214 6.90034 108.214 7.45753C108.214 8.20461 107.914 8.921 107.382 9.44926C106.85 9.97752 106.128 10.2744 105.375 10.2747ZM107.822 28.0443H102.919V12.4124H107.817L107.822 28.0443ZM128.604 0.12815H100.465C99.826 0.121029 99.2105 0.365854 98.7536 0.808818C98.2967 1.25178 98.0358 1.85664 98.0281 2.49046V30.5312C98.0355 31.1653 98.2963 31.7705 98.7532 32.2139C99.2101 32.6573 99.8257 32.9025 100.465 32.8957H128.605C129.245 32.9037 129.863 32.6592 130.321 32.2158C130.78 31.7725 131.043 31.1666 131.052 30.5312V2.49046C131.042 1.85516 130.779 1.24946 130.32 0.806494C129.861 0.363526 129.244 0.119535 128.604 0.12815ZM134.809 28.6593C134.213 28.6651 133.645 28.9045 133.227 29.3252C132.809 29.746 132.576 30.3138 132.579 30.9045C132.582 31.4952 132.82 32.0607 133.242 32.4774C133.664 32.8941 134.235 33.128 134.83 33.128C135.426 33.128 135.997 32.8941 136.419 32.4774C136.841 32.0607 137.079 31.4952 137.082 30.9045C137.085 30.3138 136.852 29.746 136.434 29.3252C136.016 28.9045 135.448 28.6651 134.852 28.6593H134.809ZM134.809 32.8723C134.418 32.8789 134.034 32.7704 133.706 32.5605C133.377 32.3506 133.119 32.0488 132.964 31.6932C132.808 31.3377 132.762 30.9443 132.832 30.5629C132.902 30.1815 133.084 29.8293 133.356 29.5506C133.627 29.272 133.976 29.0795 134.358 28.9976C134.739 28.9156 135.137 28.9478 135.5 29.0902C135.864 29.2325 136.176 29.4786 136.399 29.7972C136.621 30.1159 136.743 30.4928 136.75 30.8804V30.9138C136.761 31.422 136.568 31.9136 136.213 32.2807C135.859 32.6477 135.372 32.8601 134.86 32.8712H134.81" fill="#8F97A5"/>
</g>
<defs>
<clipPath id="clip0_2204_72">
<rect width="136.342" height="33" fill="white" transform="translate(0.740234 0.128174)"/>
</clipPath>
</defs>
</svg>
