<svg xmlns="http://www.w3.org/2000/svg" viewBox="0 0 120 32"><defs><style>.cls-1{fill:none;}.cls-2{fill:#706d6e;fill-rule:evenodd;}.cls-3{fill:#f1511b;}.cls-4{fill:#80cc28;}.cls-5{fill:#00adef;}.cls-6{fill:#fbbc09;}</style></defs><g id="Layer_2" data-name="Layer 2"><g id="Layer_1-2" data-name="Layer 1"><rect class="cls-1" width="120" height="32"/><path id="Layer" class="cls-2" d="M117.39,14.78V20a2.18,2.18,0,0,0,.35,1.41,1.4,1.4,0,0,0,1.11.41,2,2,0,0,0,.52-.09,2,2,0,0,0,.53-.24l.1-.07v2.14h0a3.15,3.15,0,0,1-.82.26,4.77,4.77,0,0,1-1.11.12q-3.26,0-3.26-3.5V14.78H110.9v8.89h-2.61V14.78h-1.84V12.67h1.84V11.14a4.12,4.12,0,0,1,.5-2.05,3.52,3.52,0,0,1,1.41-1.4,4.28,4.28,0,0,1,2.07-.5,4.39,4.39,0,0,1,1.45.2h0V9.63l-.1,0a2.68,2.68,0,0,0-1.13-.26,1.49,1.49,0,0,0-1.21.49,2.19,2.19,0,0,0-.43,1.46v1.39h3.89V10.18h0l2.47-.76.09,0v3.28H120v2.11Zm-12.63-.86a5.75,5.75,0,0,1,1.45,4.14,5.86,5.86,0,0,1-1.55,4.27,5.55,5.55,0,0,1-4.2,1.6,5.48,5.48,0,0,1-4-1.52,5.61,5.61,0,0,1-1.51-4.12A5.87,5.87,0,0,1,96.45,14a5.74,5.74,0,0,1,4.28-1.58,5.37,5.37,0,0,1,4,1.51Zm-2,7a4.2,4.2,0,0,0,.75-2.72,4,4,0,0,0-.79-2.69,2.69,2.69,0,0,0-2.15-.92,2.77,2.77,0,0,0-2.21,1,4.13,4.13,0,0,0-.8,2.71,4,4,0,0,0,.8,2.65,2.84,2.84,0,0,0,2.23.94,2.57,2.57,0,0,0,2.17-.93ZM92,12.53a5.59,5.59,0,0,1,1.19.34h0v2.39l-.1-.07a4.27,4.27,0,0,0-1.16-.53,4.44,4.44,0,0,0-1.33-.21,1.77,1.77,0,0,0-1.11.32.91.91,0,0,0-.39.78,1.14,1.14,0,0,0,.31.85,5.29,5.29,0,0,0,1.54.8,5.47,5.47,0,0,1,2.19,1.4,2.84,2.84,0,0,1,.63,1.89A3,3,0,0,1,92.58,23a5,5,0,0,1-3.2.94,7,7,0,0,1-1.49-.17,5.31,5.31,0,0,1-1.39-.43h0V20.8l.11.07a3.39,3.39,0,0,0,.34.23l.36.2.38.17a3,3,0,0,0,.39.14,4.47,4.47,0,0,0,1.43.27c1.14,0,1.69-.36,1.69-1.1a1,1,0,0,0-.16-.62,1.93,1.93,0,0,0-.59-.49,11.13,11.13,0,0,0-1.32-.61,6.35,6.35,0,0,1-1.59-.89,2.53,2.53,0,0,1-.78-1,3.16,3.16,0,0,1-.26-1.35,3,3,0,0,1,1.19-2.44,4.67,4.67,0,0,1,3-.94,7.72,7.72,0,0,1,1.28.12Zm-8.18,1.39a5.75,5.75,0,0,1,1.45,4.14,5.86,5.86,0,0,1-1.55,4.27,5.56,5.56,0,0,1-4.19,1.6,5.47,5.47,0,0,1-4.06-1.52,5.58,5.58,0,0,1-1.52-4.12A5.88,5.88,0,0,1,75.47,14a5.71,5.71,0,0,1,4.28-1.58,5.35,5.35,0,0,1,4,1.51Zm-2,7a4.33,4.33,0,0,0,.73-2.72,4,4,0,0,0-.78-2.69,3,3,0,0,0-4.35,0,4.08,4.08,0,0,0-.8,2.71,3.94,3.94,0,0,0,.8,2.65,2.79,2.79,0,0,0,2.23.94,2.61,2.61,0,0,0,2.17-.93ZM70,14.58a3.39,3.39,0,0,1,1-1.48,2.94,2.94,0,0,1,2.74-.47l0,0v2.61l-.1-.08a2.55,2.55,0,0,0-.61-.24,2.85,2.85,0,0,0-.78-.12,2,2,0,0,0-1.68.88A4,4,0,0,0,69.94,18v5.63H67.35v-11h2.59v1.91Zm-5.81-2a4.3,4.3,0,0,1,1.2.4l0,0v2.49l-.1-.08a4.18,4.18,0,0,0-2.46-.86,3.2,3.2,0,0,0-2.44,1,3.78,3.78,0,0,0-.93,2.68,3.7,3.7,0,0,0,.89,2.62,3.24,3.24,0,0,0,2.43.95A3.64,3.64,0,0,0,64,21.55a5,5,0,0,0,1.27-.66l.1-.08v2.38h0a6.14,6.14,0,0,1-3.13.73,5.8,5.8,0,0,1-2.82-.68,4.74,4.74,0,0,1-1.93-2,5.71,5.71,0,0,1-.7-2.83,6.78,6.78,0,0,1,.71-3.16,5.09,5.09,0,0,1,2.07-2.14,6.46,6.46,0,0,1,3.15-.75,6.74,6.74,0,0,1,1.45.15ZM55,23.67H52.41v-11H55ZM54.85,8.41a1.5,1.5,0,0,1,.45,1.07,1.39,1.39,0,0,1-.46,1.07,1.57,1.57,0,0,1-1.11.42,1.58,1.58,0,0,1-1.11-.42,1.42,1.42,0,0,1-.45-1.07,1.46,1.46,0,0,1,.45-1.08A1.64,1.64,0,0,1,53.73,8,1.53,1.53,0,0,1,54.85,8.41Zm-7.66,3.44L42.5,23.67H40.63L35.87,11.85h-.09V23.67H33.29V8.31H37.1l4.52,11.4,4.64-11.4h3.66V23.67H47.27V11.85Z"/><path id="Layer-2" data-name="Layer" class="cls-3" d="M12.18,15.37H0V3.19H12.18Z"/><path id="Layer-3" data-name="Layer" class="cls-4" d="M25.62,15.37H13.44V3.19H25.62Z"/><path id="Layer-4" data-name="Layer" class="cls-5" d="M12.18,28.81H0V16.63H12.18Z"/><path id="Layer-5" data-name="Layer" class="cls-6" d="M25.62,28.81H13.44V16.63H25.62Z"/></g></g></svg>